<svg width="37" height="37" viewBox="0 0 37 37" fill="none" xmlns="http://www.w3.org/2000/svg">
<ellipse cx="18.5" cy="18.3764" rx="18.5" ry="18.3764" fill="#CBCBCB"/>
<path d="M30.3247 25.5972C29.0264 27.6071 27.2164 29.2404 25.078 30.3316C22.9396 31.4229 20.5488 31.9333 18.1479 31.8112C15.747 31.6892 13.4212 30.9389 11.4061 29.6365C9.39112 28.334 7.75846 26.5257 6.67357 24.3946C5.58869 22.2636 5.09013 19.8856 5.2284 17.5015C5.36667 15.1175 6.13686 12.8121 7.46094 10.8189C8.78502 8.82572 10.6159 7.21558 12.7682 6.15161C14.9205 5.08764 17.3176 4.60764 19.7168 4.76025C19.7168 4.76025 13.5184 10.6798 17.804 19.098C22.0896 27.5162 30.3247 25.5972 30.3247 25.5972Z" fill="#656565" fill-opacity="0.7"/>
</svg>
