<svg width="37" height="38" viewBox="0 0 37 38" fill="none" xmlns="http://www.w3.org/2000/svg">
<circle cx="18.5" cy="18.5" r="18.5" fill="#2196F3"/>
<path d="M30.3247 25.7695C29.0264 27.7928 27.2164 29.4371 25.078 30.5357C22.9396 31.6343 20.5488 32.1482 18.1479 32.0253C15.747 31.9024 13.4212 31.1471 11.4061 29.8359C9.39112 28.5247 7.75846 26.7041 6.67357 24.5588C5.58869 22.4134 5.09013 20.0194 5.2284 17.6193C5.36667 15.2192 6.13686 12.8983 7.46094 10.8917C8.78502 8.8851 10.6159 7.26413 12.7682 6.193C14.9205 5.12187 17.3176 4.63865 19.7168 4.79228C19.7168 4.79228 13.5184 10.7517 17.804 19.2265C22.0896 27.7013 30.3247 25.7695 30.3247 25.7695Z" fill="#E1E1E1" fill-opacity="0.7"/>
</svg>
